<?xml version="1.0" standalone="no"?>
<!DOCTYPE svg PUBLIC "-//W3C//DTD SVG 20010904//EN"
 "http://www.w3.org/TR/2001/REC-SVG-20010904/DTD/svg10.dtd">
<svg version="1.0" xmlns="http://www.w3.org/2000/svg"
 width="530.000000pt" height="552.000000pt" viewBox="0 0 530.000000 552.000000"
 preserveAspectRatio="xMidYMid meet">

<g transform="translate(0.000000,552.000000) scale(0.100000,-0.100000)"
fill="#000000" stroke="none">
<path d="M1810 3183 c0 -1090 -1 -1188 -17 -1205 -16 -17 -7 -18 270 -18 264
0 311 4 277 25 -6 4 -10 130 -10 343 0 185 -5 443 -10 572 -5 129 -8 235 -7
236 1 1 76 -80 167 -179 90 -100 169 -182 175 -182 11 0 61 54 234 248 58 64
105 116 106 114 1 -1 -2 -105 -6 -232 -4 -126 -8 -384 -8 -572 -1 -216 -5
-344 -11 -348 -34 -21 13 -25 277 -25 277 0 286 1 270 18 -16 17 -17 115 -17
1200 0 1164 0 1182 -19 1182 -13 0 -151 -147 -416 -445 -217 -244 -399 -447
-404 -450 -5 -3 -116 115 -247 262 -444 500 -575 643 -590 643 -12 0 -14 -167
-14 -1187z"/>
<path d="M1850 1523 c-65 -21 -90 -59 -90 -139 0 -62 23 -106 71 -135 108 -65
104 -61 107 -117 3 -47 1 -53 -22 -63 -30 -14 -56 1 -56 32 0 30 -29 50 -69
47 -34 -3 -36 -5 -39 -40 -7 -80 51 -132 148 -132 108 0 156 54 148 165 -5 74
-24 100 -108 154 -70 45 -70 45 -70 90 0 33 5 47 16 52 24 9 48 -10 54 -43 5
-27 9 -29 54 -32 l49 -3 -5 50 c-6 57 -26 87 -75 107 -32 14 -84 17 -113 7z"/>
<path d="M4624 1516 c-17 -8 -41 -26 -53 -42 -21 -27 -22 -34 -19 -232 l3
-204 31 -28 c58 -51 179 -48 230 7 24 26 24 29 24 232 0 175 -3 210 -16 230
-33 47 -134 66 -200 37z m104 -88 c8 -8 12 -63 12 -180 l0 -168 -25 -12 c-19
-8 -28 -8 -40 2 -12 10 -15 42 -15 185 0 129 3 175 13 178 22 9 43 7 55 -5z"/>
<path d="M470 1486 c0 -19 5 -38 10 -41 6 -4 10 -80 10 -195 0 -115 -4 -191
-10 -195 -5 -3 -10 -22 -10 -41 l0 -34 75 0 75 0 0 33 c0 18 -5 38 -10 43 -7
7 -10 52 -8 113 l3 103 38 -66 c53 -90 73 -90 130 1 l42 68 3 -104 c2 -82 0
-107 -13 -121 -8 -9 -15 -29 -15 -43 l0 -27 80 0 80 0 0 28 c0 16 -7 37 -15
48 -21 28 -21 360 0 388 8 11 15 32 15 48 0 27 -2 28 -53 28 l-53 0 -64 -110
c-35 -60 -68 -110 -72 -110 -4 0 -33 49 -65 110 l-58 110 -57 0 -58 0 0 -34z"/>
<path d="M1060 1487 c0 -18 5 -38 11 -44 13 -13 -57 -359 -78 -384 -7 -8 -13
-30 -13 -47 l0 -32 76 0 76 0 -5 33 c-4 17 -9 47 -13 65 l-6 32 47 0 47 0 -6
-32 c-4 -18 -9 -48 -13 -65 l-5 -33 76 0 76 0 0 30 c0 17 -6 41 -14 53 -8 12
-33 110 -56 217 -22 107 -45 205 -50 218 -9 20 -16 22 -80 22 l-70 0 0 -33z
m116 -233 c6 -54 6 -54 -21 -54 l-28 0 7 57 c4 31 10 69 13 83 l6 25 8 -29 c4
-15 11 -52 15 -82z"/>
<path d="M1360 1491 c0 -16 7 -34 15 -41 22 -18 22 -366 0 -394 -8 -11 -15
-32 -15 -48 l0 -28 75 0 75 0 0 34 c0 19 -4 38 -10 41 -12 8 -13 95 -1 113 6
10 18 -10 41 -65 50 -121 51 -123 116 -123 l55 0 -3 37 c-2 29 -9 41 -29 50
-19 9 -35 37 -67 114 l-42 102 36 66 c19 36 44 73 55 83 12 10 19 29 19 52 0
35 -1 36 -37 36 -21 0 -43 -4 -49 -8 -6 -4 -30 -42 -55 -86 l-44 -78 -3 42
c-2 24 2 48 7 53 6 6 11 26 11 44 l0 33 -75 0 -75 0 0 -29z"/>
<path d="M2080 1493 c0 -16 7 -37 15 -47 22 -29 21 -362 0 -390 -8 -11 -15
-32 -15 -48 l0 -28 75 0 c86 0 100 12 72 62 -14 25 -17 60 -17 208 0 148 3
183 17 208 28 50 14 62 -72 62 l-75 0 0 -27z"/>
<path d="M2270 1486 c0 -18 7 -39 15 -46 22 -18 22 -357 0 -386 -8 -10 -15
-31 -15 -46 l0 -28 80 0 80 0 0 28 c0 15 -7 36 -15 46 -11 15 -15 47 -15 120
l0 101 20 -25 c11 -14 30 -44 42 -67 35 -66 62 -60 115 25 l42 67 1 -107 c0
-61 -4 -109 -10 -113 -5 -3 -10 -22 -10 -41 l0 -34 75 0 75 0 0 34 c0 19 -4
38 -10 41 -6 4 -10 80 -10 195 0 115 4 191 10 195 6 3 10 22 10 41 l0 35 -52
-3 -52 -3 -63 -105 c-35 -58 -67 -106 -72 -108 -7 -2 -76 116 -109 190 -11 26
-16 28 -72 28 l-60 0 0 -34z"/>
<path d="M2790 1486 c0 -19 5 -38 10 -41 6 -4 10 -80 10 -195 0 -115 -4 -191
-10 -195 -5 -3 -10 -22 -10 -41 l0 -34 110 0 c117 0 159 12 180 49 14 27 13
204 -2 219 -9 9 -9 18 0 37 16 35 15 128 -2 169 -24 57 -47 66 -173 66 l-113
0 0 -34z m185 -116 c0 -53 -1 -55 -27 -58 -28 -3 -28 -3 -28 58 0 61 0 61 28
58 26 -3 27 -5 27 -58z m9 -166 c3 -9 6 -35 6 -59 0 -61 -8 -75 -41 -75 l-29
0 0 75 0 75 29 0 c17 0 31 -6 35 -16z"/>
<path d="M3130 1492 c0 -16 7 -37 15 -48 11 -15 14 -57 15 -201 0 -109 4 -192
11 -206 34 -76 185 -86 243 -16 26 30 26 32 26 214 0 143 3 189 15 211 8 16
15 39 15 52 0 21 -4 22 -75 22 l-75 0 0 -33 c0 -18 5 -38 10 -43 7 -7 9 -77 8
-189 -3 -157 -5 -179 -20 -189 -13 -8 -23 -8 -35 0 -16 10 -18 32 -21 184 -1
96 2 177 7 184 9 10 15 46 12 74 -1 8 -23 12 -76 12 l-75 0 0 -28z"/>
<path d="M3500 1486 c0 -19 5 -38 10 -41 6 -4 10 -80 10 -195 0 -115 -4 -191
-10 -195 -5 -3 -10 -22 -10 -41 l0 -34 120 0 c118 0 120 0 152 29 l33 29 0
212 0 212 -33 29 c-32 29 -34 29 -152 29 l-120 0 0 -34z m198 -238 l2 -178
-35 0 -35 0 0 181 0 180 33 -3 32 -3 3 -177z"/>
<path d="M3867 1513 c-13 -12 -7 -79 9 -101 19 -28 60 -29 67 -2 4 15 14 20
37 20 29 0 32 -3 26 -23 -3 -13 -37 -90 -76 -171 -60 -127 -70 -155 -70 -202
l0 -55 133 3 132 3 3 63 3 62 -30 0 c-20 0 -35 -7 -43 -20 -13 -20 -72 -29
-81 -12 -2 4 29 81 69 172 61 136 74 174 74 218 l0 52 -123 0 c-68 0 -127 -3
-130 -7z"/>
<path d="M4170 1486 c0 -19 5 -38 10 -41 6 -4 10 -80 10 -195 0 -115 -4 -191
-10 -195 -5 -3 -10 -22 -10 -41 l0 -34 75 0 75 0 0 28 c0 16 -7 37 -15 48 -8
10 -14 35 -15 54 0 36 18 73 26 55 3 -5 22 -48 42 -95 l37 -85 58 -3 57 -3 0
38 c0 31 -5 41 -28 54 -20 11 -37 40 -67 113 l-39 98 34 66 c19 36 44 75 57
86 15 13 23 31 23 53 0 32 -1 33 -45 33 -49 0 -49 0 -121 -125 l-29 -50 -3 38
c-2 23 3 48 12 62 9 14 16 36 16 50 0 25 -1 25 -75 25 l-75 0 0 -34z"/>
</g>
</svg>
